<?xml version="1.0" encoding="UTF-8" standalone="no"?>
<!-- Created with Inkscape (http://www.inkscape.org/) -->

<svg
   xmlns:dc="http://purl.org/dc/elements/1.1/"
   xmlns:cc="http://creativecommons.org/ns#"
   xmlns:rdf="http://www.w3.org/1999/02/22-rdf-syntax-ns#"
   xmlns:svg="http://www.w3.org/2000/svg"
   xmlns="http://www.w3.org/2000/svg"
   xmlns:sodipodi="http://sodipodi.sourceforge.net/DTD/sodipodi-0.dtd"
   xmlns:inkscape="http://www.inkscape.org/namespaces/inkscape"
   id="svg3387"
   version="1.1"
   inkscape:version="0.91 r13725"
   width="223"
   height="226"
   viewBox="0 0 223 226"
   sodipodi:docname="lightbulb.svg"
   inkscape:export-filename="/home/shaun/Desktop/Projects/idea-me/resources/lightbulb.png"
   inkscape:export-xdpi="20.18"
   inkscape:export-ydpi="20.18">
  <metadata
     id="metadata3393">
    <rdf:RDF>
      <cc:Work
         rdf:about="">
        <dc:format>image/svg+xml</dc:format>
        <dc:type
           rdf:resource="http://purl.org/dc/dcmitype/StillImage" />
        <dc:title />
      </cc:Work>
    </rdf:RDF>
  </metadata>
  <defs
     id="defs3391" />
  <sodipodi:namedview
     pagecolor="#ffffff"
     bordercolor="#666666"
     borderopacity="1"
     objecttolerance="10"
     gridtolerance="10"
     guidetolerance="10"
     inkscape:pageopacity="0"
     inkscape:pageshadow="2"
     inkscape:window-width="1366"
     inkscape:window-height="681"
     id="namedview3389"
     showgrid="false"
     inkscape:zoom="2.4070796"
     inkscape:cx="120.01655"
     inkscape:cy="113"
     inkscape:window-x="0"
     inkscape:window-y="24"
     inkscape:window-maximized="1"
     inkscape:current-layer="svg3387" />
  <path
     style="fill:#000000"
     d="m 104.62963,225.17971 c -3.28155,-1.3111 -15.888862,-13.39079 -15.690312,-15.03365 0.109415,-0.90533 -0.154975,-2.46381 -0.587533,-3.46328 -0.458714,-1.0599 -0.324306,-2.27938 0.322519,-2.9262 0.811985,-0.81199 0.810585,-1.46855 -0.0052,-2.45154 -0.835753,-1.00703 -0.724892,-1.77523 0.443586,-3.0738 1.416384,-1.57407 1.383522,-1.94556 -0.361988,-4.09202 -1.334579,-1.64115 -1.922095,-3.92738 -1.927346,-7.5 C 86.80379,173.34851 81.141031,157.0288 72.403463,145.08209 64.458709,134.21938 58.323698,121.44576 57.446165,113.93971 56.068468,102.15546 61.304236,86.424118 69.826263,76.742585 77.923736,67.543369 90.985647,60.920817 103.83088,59.501819 c 3.2357,-0.357444 8.79353,-0.01078 13.5,0.842059 26.25644,4.75779 40.67177,19.328661 42.20078,42.656122 0.97698,14.90552 -3.14257,27.12426 -15.58666,46.23061 -10.31608,15.83905 -12.14953,20.52466 -12.82245,32.76939 -0.31461,5.72462 -1.099,10.42077 -1.97378,11.81692 -1.12574,1.79669 -1.18706,2.63579 -0.27313,3.73702 0.64822,0.78105 0.90167,2.52335 0.56324,3.87179 -0.33844,1.34843 -0.14184,2.74434 0.43689,3.10201 0.73452,0.45396 0.73042,1.03807 -0.0136,1.93454 -0.5862,0.70632 -0.78177,2.02444 -0.4346,2.92914 0.71747,1.86971 -11.30856,14.16833 -15.36083,15.709 -2.71703,1.03301 -6.96083,1.06867 -9.43713,0.0793 z M 115.72936,220.25 c 8.97109,-7.72975 10.24963,-9.20798 9.63609,-11.14109 -0.33876,-1.06733 -0.15684,-2.22433 0.40427,-2.57111 0.67605,-0.41782 0.61388,-1.28115 -0.18428,-2.5592 -0.94017,-1.50546 -0.93868,-2.19448 0.007,-3.13999 0.9484,-0.9484 0.89597,-1.55974 -0.24159,-2.81673 -1.20867,-1.33556 -2.67717,-1.48116 -8.73634,-0.8662 -4.0059,0.40657 -10.51852,0.47828 -14.47248,0.15936 -5.627375,-0.45389 -7.514147,-0.25473 -8.685717,0.91684 -1.13592,1.13592 -1.216916,1.77647 -0.336018,2.65737 0.880898,0.88089 0.832562,1.68606 -0.200526,3.3403 -0.970791,1.55448 -1.035312,2.28825 -0.224959,2.55837 1.47118,0.49039 1.48287,3.21208 0.0138,3.21208 -1.634599,0 0.671719,2.53617 7.42436,8.16429 6.99156,5.82724 10.68147,6.32069 15.59656,2.08571 z m 6.8477,-26.8449 c 4.90387,-0.60805 4.87108,-0.52951 5.62988,-13.4846 0.65563,-11.1936 2.67483,-16.23327 12.65902,-31.59537 9.64694,-14.84318 12.10116,-20.05262 14.47537,-30.72612 3.39737,-15.27319 0.27454,-29.296449 -8.71416,-39.131525 -7.97526,-8.726205 -17.74875,-13.475186 -31.84723,-15.474711 -20.328706,-2.883129 -40.346362,7.891991 -49.656072,26.728909 -3.318012,6.713541 -3.754431,8.51022 -4.124952,16.981857 -0.371665,8.49782 -0.135186,10.18555 2.2951,16.37994 1.490202,3.79828 5.667457,11.29583 9.282789,16.66124 12.27308,18.21411 17.19555,31.26191 17.261834,45.75528 0.01258,2.75 0.399009,5.5932 0.858738,6.31823 1.636046,2.58016 17.500223,3.36983 31.879683,1.58687 z m 57.77034,-32.52672 c -9.72421,-8.03319 -14.33798,-12.45692 -13.67917,-13.11573 1.20534,-1.20534 1.11105,-1.27116 17.46428,12.19004 C 195.40935,169.23525 198.81225,173 195.92578,173 c -0.49781,0 -7.50808,-5.45473 -15.57838,-12.12162 z M 18.83088,165.10517 C 18.83088,164.13402 54.325084,142 55.882424,142 c 3.514289,0 -1.324504,3.88751 -16.492323,13.25 -16.222804,10.01369 -20.559221,12.09238 -20.559221,9.85517 z M 176.0252,103.90805 c 0.37196,-1.12306 5.16763,-1.58181 23.69419,-2.26654 12.77532,-0.47216 23.50917,-0.57716 23.853,-0.23333 1.86244,1.86244 -3.46292,2.55377 -24.62753,3.19708 -19.88581,0.60445 -23.31622,0.5001 -22.91966,-0.69721 z M 20.96032,95.936061 C 10.306512,93.821944 1.3365115,91.838964 1.0269862,91.529439 0.71746089,91.219914 0.8842129,90.562618 1.3975462,90.068782 2.700428,88.815386 46.047716,97.150508 46.583356,98.757427 47.232425,100.70463 42.196581,100.15014 20.96032,95.936061 Z M 151.46033,65.20946 c -0.75048,-1.214314 24.69884,-48.164382 26.12055,-48.18837 0.6875,-0.0116 1.25,0.441355 1.25,1.006566 0,1.698301 -25.10799,47.972343 -26.02947,47.972343 -0.46887,0 -1.07236,-0.355742 -1.34108,-0.790539 z M 44.034423,45.323966 C 33.560005,32.497629 29.10591,26.324969 29.814056,25.616823 c 0.708146,-0.708146 1.45856,-0.574704 2.39581,0.426033 4.270814,4.560112 29.621014,36.248554 29.621014,37.027076 0,3.085754 -4.225337,-1.127595 -17.796457,-17.745966 z M 102.30505,25.249999 c 0.69792,-22.7754618 1.01514,-25.59234221 2.81271,-24.97640244 0.77207,0.26455009 1.13367,2.19910464 0.99458,5.32103944 -0.1202,2.6979497 -0.50607,12.892863 -0.85749,22.655363 -0.52842,14.679318 -0.89384,17.75 -2.1123,17.75 -1.2709,0 -1.38598,-2.851302 -0.8375,-20.75 z"
     id="path3397"
     inkscape:connector-curvature="0"
     inkscape:export-filename="lightbulb.png"
     inkscape:export-xdpi="40.349998"
     inkscape:export-ydpi="40.349998" />
  <path
     style="fill:#ffff00"
     d="m 100.74007,193.92922 c -5.449611,-0.33657 -8.605142,-1.02874 -9.574854,-2.10026 -0.554619,-0.61285 -0.790756,-2.04871 -1.070615,-6.51001 -0.423326,-6.74831 -0.924789,-10.33341 -2.07902,-14.86343 -1.848724,-7.25572 -6.163349,-16.48666 -12.077995,-25.84032 -8.871685,-14.03004 -11.099462,-18.03658 -13.467373,-24.22035 -1.17375,-3.06523 -1.192424,-3.24731 -1.150413,-11.21691 0.05058,-9.595724 0.496178,-11.934651 3.45318,-18.125765 6.752095,-14.136948 18.301761,-23.575082 33.266726,-27.184838 5.537714,-1.335772 14.528254,-1.343515 20.772054,-0.01789 9.29829,1.974124 16.43599,5.109117 22.2823,9.78674 9.00814,7.207411 13.86482,16.136913 15.12064,27.800861 0.59434,5.52019 0.0319,11.62691 -1.70734,18.53759 -2.21929,8.81811 -4.64363,13.78868 -13.63258,27.95064 -10.7037,16.86353 -11.9818,20.1708 -12.93313,33.46647 -0.59729,8.34761 -1.07279,10.48246 -2.48283,11.14697 -2.20822,1.04067 -16.95308,1.87011 -24.71875,1.3905 z"
     id="path3341"
     inkscape:connector-curvature="0" />
  <path
     style="fill:#ff9800;fill-opacity:0.00392157"
     d="m 97.484398,193.51571 c -3.877286,-0.4911 -6.324807,-1.46034 -6.612683,-2.6187 -0.125173,-0.50367 -0.43355,-3.43956 -0.685282,-6.52421 -1.289699,-15.80358 -4.560161,-24.39247 -16.847325,-44.24449 -6.056142,-9.78474 -9.570678,-16.36857 -11.007386,-20.62031 -0.83113,-2.45961 -0.880419,-3.25403 -0.705351,-11.36866 0.208651,-9.671297 0.594972,-11.586065 3.520393,-17.448532 6.249771,-12.524377 16.148281,-21.223032 29.022993,-25.504952 9.976033,-3.317866 22.348823,-2.746839 34.200273,1.578404 14.02602,5.118864 23.6544,15.766843 26.89471,29.742725 1.12283,4.842915 1.03164,14.729575 -0.18704,20.279215 -2.21352,10.07997 -4.71274,15.56415 -13.68333,30.02614 -7.31523,11.7933 -9.4447,15.61746 -10.86766,19.51648 -1.54513,4.23377 -1.98087,6.65113 -2.76527,15.34126 -0.71863,7.96151 -1.13929,9.99574 -2.18246,10.55403 -2.20442,1.17977 -21.84768,2.08284 -28.094582,1.2916 z"
     id="path4142"
     inkscape:connector-curvature="0" />
</svg>
