<?xml version="1.0" encoding="UTF-8" standalone="no"?>
<!-- Created with Inkscape (http://www.inkscape.org/) -->

<svg
   xmlns:dc="http://purl.org/dc/elements/1.1/"
   xmlns:cc="http://creativecommons.org/ns#"
   xmlns:rdf="http://www.w3.org/1999/02/22-rdf-syntax-ns#"
   xmlns:svg="http://www.w3.org/2000/svg"
   xmlns="http://www.w3.org/2000/svg"
   xmlns:sodipodi="http://sodipodi.sourceforge.net/DTD/sodipodi-0.dtd"
   xmlns:inkscape="http://www.inkscape.org/namespaces/inkscape"
   id="svg3387"
   version="1.1"
   inkscape:version="0.91 r13725"
   width="223"
   height="226"
   viewBox="0 0 223 226"
   sodipodi:docname="lightbulb.svg"
   inkscape:export-filename="/home/shaun/Desktop/Projects/idea-me/resources/lightbulb.png"
   inkscape:export-xdpi="20.18"
   inkscape:export-ydpi="20.18">
  <metadata
     id="metadata3393">
    <rdf:RDF>
      <cc:Work
         rdf:about="">
        <dc:format>image/svg+xml</dc:format>
        <dc:type
           rdf:resource="http://purl.org/dc/dcmitype/StillImage" />
        <dc:title />
      </cc:Work>
    </rdf:RDF>
  </metadata>
  <defs
     id="defs3391" />
  <sodipodi:namedview
     pagecolor="#ffffff"
     bordercolor="#666666"
     borderopacity="1"
     objecttolerance="10"
     gridtolerance="10"
     guidetolerance="10"
     inkscape:pageopacity="0"
     inkscape:pageshadow="2"
     inkscape:window-width="1366"
     inkscape:window-height="681"
     id="namedview3389"
     showgrid="false"
     inkscape:zoom="2.4070796"
     inkscape:cx="107.40001"
     inkscape:cy="79.764705"
     inkscape:window-x="0"
     inkscape:window-y="24"
     inkscape:window-maximized="1"
     inkscape:current-layer="svg3387" />
  <path
     style="fill:#000000;fill-opacity:1;stroke-width:5;stroke-miterlimit:4;stroke-dasharray:none"
     d="m 104.62963,225.17971 c -7.921641,-5.5557 -18.811919,-13.47147 -15.960526,-23.87467 1.635913,-7.65878 -3.092306,-17.14479 -3.144273,-26.43398 -2.647343,-15.13839 -11.659287,-27.80383 -19.93416,-40.31353 -6.962482,-11.0788 -10.968913,-24.7129 -6.433779,-37.514 6.176436,-25.737523 35.016421,-42.917107 60.600808,-36.224892 18.50142,2.991806 36.37962,16.379306 39.00501,35.852271 4.27731,20.070591 -5.55367,39.385511 -16.65436,55.403391 -7.13495,9.93251 -11.63897,21.62859 -11.30391,33.99083 -4.73184,9.47928 2.51926,19.11434 -3.80545,27.48792 -5.75106,6.20629 -12.68995,15.25861 -22.36936,11.62666 z M 115.72936,220.25 c 8.86093,-4.86818 11.64437,-14.28863 9.62149,-22.22812 -10.00037,-0.54145 -23.98176,-2.90769 -32.818853,1.63432 2.099371,6.66269 -3.03831,11.98398 5.276167,16.54139 4.713706,4.28868 12.070196,10.39688 17.921196,4.05241 z m 6.8477,-26.8449 c 10.65318,-3.89928 2.32953,-21.11724 9.20549,-29.46481 8.45918,-17.16886 22.99002,-32.03309 24.52844,-52.0044 3.17482,-19.266152 -8.80675,-39.245978 -27.36162,-45.468978 -18.9903,-7.792605 -42.674488,-3.844036 -56.287659,12.108933 -8.398582,8.991672 -12.711961,21.136267 -11.802741,33.400995 1.167617,17.87859 15.935494,30.56361 22.555553,46.42789 4.811948,9.61224 6.601623,20.35441 6.685804,31.01375 6.149339,8.6118 21.160373,4.0305 31.124793,4.14626 l 1.35194,-0.15964 z m 57.77034,-32.52672 c -3.30927,-4.11906 -13.71221,-8.8633 -12.74155,-13.61252 10.27362,7.02326 20.17333,15.0682 28.83032,24.05344 -1.59573,3.92606 -10.6542,-7.20319 -14.46803,-9.10656 l -1.62074,-1.33436 z M 18.83088,165.10517 C 30.637436,156.62493 43.094932,148.91512 55.882424,142 c -1.482594,6.49167 -15.420958,11.48714 -22.033446,16.64025 -4.444266,1.71719 -10.666724,8.3355 -15.018098,6.46492 z M 176.0252,103.90805 c 10.35681,-3.03959 21.93657,-1.63321 32.76246,-2.55054 4.15269,-0.6917 22.92399,-0.0454 9.56503,2.28178 -13.86725,0.80685 -27.84294,1.75283 -41.71003,0.96781 l -0.56212,-0.30054 -0.0553,-0.39851 z M 20.96032,95.936061 C 15.247248,93.682606 3.7488022,94.607921 1.3975462,90.068782 15.967106,91.018451 30.365802,94.420629 44.541429,97.871316 48.487869,102.35954 30.897839,97.51403 26.514523,97.025732 24.662169,96.667388 22.810939,96.303256 20.96032,95.936061 Z M 151.46033,65.20946 c 7.20053,-16.484419 16.20823,-32.288827 25.58467,-47.65658 3.07816,4.645722 -8.47214,17.784652 -10.8833,25.09781 -4.89521,6.520676 -8.3607,20.03658 -14.70137,22.55877 z M 44.034423,45.323966 C 40.152459,38.994899 30.009012,31.477977 30.926047,25.189008 41.823881,36.30356 50.994095,49.235897 60.733272,61.44244 61.519859,67.689551 50.494406,52.837684 47.609098,49.675004 46.412474,48.228829 45.221725,46.777801 44.034423,45.323966 Z M 102.30505,25.249999 c 1.44471,-7.195261 -1.87775,-20.9915236 3.31339,-24.47240504 0.94558,13.06488904 -0.60578,26.38951204 -0.94288,39.53948804 -2.09357,14.168583 -3.6937,-6.499318 -2.50687,-10.419782 0.0429,-1.549176 0.0889,-3.09826 0.13636,-4.647301 z"
     id="path3397"
     inkscape:connector-curvature="0" />
  <path
     style="fill:#ffff00"
     d="M 100.74007,193.92922 C 85.396825,196.12804 91.719197,178.07783 87.640259,169.07238 82.550511,149.84471 66.887309,135.59454 61.439096,116.62553 60.656729,105.5991 61.356646,93.937648 68.284136,84.773941 79.535204,66.448057 103.57207,58.414863 123.8199,65.084844 c 18.33526,4.342574 33.30822,21.30045 32.62335,40.605716 0.44622,19.59506 -11.57006,35.72794 -21.33493,51.6018 -7.5741,10.04086 -6.13502,22.89638 -8.75069,34.39819 -7.46554,3.33508 -17.43203,2.05918 -25.61756,2.23867 z"
     id="path3341"
     inkscape:connector-curvature="0" />
  <path
     style="fill:#ff9800;fill-opacity:0.00392157"
     d="M 97.484398,193.51571 C 84.954164,192.57644 92.527514,175.36802 87.162163,167.44542 81.67148,149.48058 67.967422,135.47527 61.846259,117.83512 60.837182,106.18259 61.408892,93.603933 69.042655,84.053236 80.966705,65.56814 105.79216,58.396862 126.14249,65.997305 c 18.53662,5.068926 32.17582,23.88252 29.826,43.210555 -0.45082,22.5183 -18.1343,38.78482 -25.97205,58.63928 -4.69163,7.84712 2.65694,25.97209 -10.65212,25.35868 -7.26064,0.51169 -14.59432,0.93053 -21.859922,0.30989 z"
     id="path4142"
     inkscape:connector-curvature="0" />
  <path
     style="fill:#ffeb3b;fill-opacity:0.00392157"
     d="M 97.484398,193.51571 C 84.954164,192.57644 92.527514,175.36802 87.162163,167.44542 81.673428,149.44895 67.898818,135.44487 61.84849,117.74113 60.800692,106.11155 61.458557,93.561835 69.058328,84.034464 80.980687,65.559767 105.81018,58.411882 126.14631,65.997989 c 18.53458,5.071172 32.17186,23.882945 29.82218,43.209871 -0.45082,22.5183 -18.1343,38.78482 -25.97205,58.63928 -4.69163,7.84712 2.65694,25.97209 -10.65212,25.35868 -7.26064,0.51169 -14.59432,0.93053 -21.859922,0.30989 z"
     id="path4143"
     inkscape:connector-curvature="0" />
  <path
     style="fill:#ffeb3b;fill-opacity:0.00392157"
     d="M 97.484398,193.51571 C 84.954164,192.57644 92.527514,175.36802 87.162163,167.44542 81.673428,149.44895 67.898818,135.44487 61.84849,117.74113 60.800692,106.11155 61.458557,93.561835 69.058328,84.034464 80.224221,66.778844 102.67219,59.280603 122.19766,64.835373 c 19.34469,3.86186 35.34188,21.869809 33.94191,42.033077 0.10547,21.59723 -14.93416,38.30029 -24.34318,56.42445 -5.96527,8.6629 -0.81104,22.58514 -7.80129,29.35788 -8.75957,1.11584 -17.69887,1.49054 -26.510702,0.86493 z"
     id="path4145"
     inkscape:connector-curvature="0" />
  <path
     style="fill:#ffeb3b;fill-opacity:0.00392157"
     d="M 97.570999,193.5241 C 84.439456,191.66241 92.875084,172.63707 85.987935,164.06813 79.906777,147.61721 67.529419,134.32271 61.84849,117.74113 60.85889,106.16118 61.367437,93.623856 68.999408,84.132523 80.999003,65.43138 106.18299,58.29288 126.65275,66.174548 c 18.96509,5.494133 32.41857,25.32795 29.23123,45.033772 -1.47534,21.68822 -18.26775,37.31071 -25.88754,56.63882 -4.69224,7.84397 2.65674,25.96592 -10.64474,25.35614 -7.23411,0.51013 -14.54128,0.9372 -21.780701,0.32082 z"
     id="path4147"
     inkscape:connector-curvature="0" />
  <path
     style="fill:#ffeb3b;fill-opacity:0.00392157"
     d="M 97.570999,193.5241 C 84.439456,191.66241 92.875084,172.63707 85.987935,164.06813 79.906777,147.61721 67.529419,134.32271 61.84849,117.74113 60.802725,106.11529 61.454475,93.566109 69.055852,84.043149 80.223269,66.801627 102.65519,59.267091 122.17841,64.840553 c 18.7545,3.818416 34.62893,20.81267 33.97342,40.457737 0.6453,20.5906 -12.56574,37.38163 -22.40089,54.23264 -6.43437,9.49733 -4.993,21.3079 -7.49192,31.92817 -8.5988,3.4181 -19.34543,2.13933 -28.688021,2.065 z"
     id="path4149"
     inkscape:connector-curvature="0" />
  <path
     style="fill:#ffeb3b;fill-opacity:0.00392157"
     d="M 97.570999,193.5241 C 84.43599,191.6578 92.877364,172.62094 85.980732,164.04906 79.868664,147.50512 67.326504,134.13816 61.779375,117.40047 60.835643,105.86197 61.535478,93.471577 69.058947,84.037048 80.478867,66.335932 103.70673,59.058195 123.52626,65.18559 c 18.61734,4.276912 33.76933,21.72587 32.61875,41.2351 0.29007,21.7574 -14.85494,38.63007 -24.34021,56.85442 -5.97313,8.66616 -0.82129,22.59164 -7.80586,29.37368 -8.73233,1.11014 -17.64323,1.49587 -26.427941,0.87531 z"
     id="path4151"
     inkscape:connector-curvature="0" />
  <path
     style="fill:#ffeb3b;fill-opacity:0.00392157"
     d="M 97.570999,193.5241 C 84.43599,191.6578 92.877364,172.62094 85.980732,164.04906 79.868664,147.50512 67.326504,134.13816 61.779375,117.40047 60.876313,105.87336 61.466255,93.445661 69.08411,84.048526 c 10.664552,-16.1694 31.29469,-24.363977 50.18465,-19.929652 19.95501,3.155047 37.85697,20.717699 36.91864,41.688366 0.43837,21.25053 -13.78184,38.13303 -23.51156,55.71544 -5.92466,9.25757 -3.24009,21.06886 -7.09686,30.70143 -9.11748,1.80227 -18.74725,1.79563 -28.007981,1.29999 z"
     id="path4153"
     inkscape:connector-curvature="0" />
  <path
     style="fill:#ffeb3b;fill-opacity:0.00392157"
     d="M 97.570999,193.52459 C 84.436007,191.65736 92.877364,172.62121 85.980732,164.04906 79.868664,147.50512 67.326504,134.13816 61.779375,117.40047 60.749022,105.51994 61.708284,92.821147 69.633705,83.234387 81.518287,65.485464 105.42903,58.823701 125.2761,65.722131 c 18.88208,4.987018 33.17996,23.864553 30.75143,43.616639 -0.81586,21.82214 -17.10949,37.99926 -25.50082,56.99005 -5.42355,7.80658 2.06641,24.98139 -9.38338,26.69906 -7.82412,0.66554 -15.73217,1.12661 -23.572331,0.49671 z"
     id="path4155"
     inkscape:connector-curvature="0" />
  <path
     style="fill:#87c355;fill-opacity:0.00392157"
     d="M 97.570999,193.52459 C 84.465589,191.64398 92.862682,172.624 85.982088,164.05245 79.870227,147.50707 67.326976,134.13926 61.779375,117.40047 60.749022,105.51994 61.708284,92.821147 69.633705,83.234387 81.912241,64.859727 106.98193,58.503464 127.21483,66.327781 c 17.84896,5.569736 30.95425,23.649436 28.78776,42.527879 -0.37264,22.64596 -18.08723,39.05751 -26.00618,58.99148 -4.69252,7.84282 2.65789,25.97309 -10.64815,25.35127 -7.23567,0.50736 -14.53607,0.93863 -21.777261,0.32618 z"
     id="path4157"
     inkscape:connector-curvature="0" />
  <path
     style="fill:#87c355;fill-opacity:0.00392157"
     d="m 97.570999,193.4931 c -13.102713,-1.81639 -4.710771,-20.869 -11.58097,-29.41962 -6.137213,-16.54823 -18.604464,-29.97171 -24.2246,-46.69278 -0.994334,-11.87337 -0.06639,-24.560794 7.866242,-34.138026 12.28581,-18.370291 37.344059,-24.747219 57.583159,-16.914893 17.84896,5.569736 30.95425,23.649436 28.78776,42.527879 -0.35268,23.26761 -19.09722,39.84385 -26.50434,60.62994 -2.54272,10.38145 1.1306,28.07323 -15.53661,24.17621 -5.45689,0.23904 -10.94712,0.35355 -16.390641,-0.16871 z"
     id="path4159"
     inkscape:connector-curvature="0" />
  <path
     style="fill:#87c355;fill-opacity:0.00392157"
     d="M 97.570999,193.4931 C 84.473611,191.68361 92.856764,172.64827 86.000381,164.10214 79.907909,147.03572 66.320394,133.51695 61.589093,115.98045 c -0.54407,-11.10397 0.1693,-22.884242 7.460503,-31.914421 11.919018,-18.443946 36.703494,-25.695074 57.015664,-18.072608 17.94171,5.167858 31.72599,22.781142 30.06199,41.760269 -0.2674,20.92819 -14.66435,37.23729 -24.0123,54.76721 -5.36654,9.08192 -2.54482,20.83373 -6.80954,29.74134 -9.03618,1.96744 -18.5396,1.75588 -27.734411,1.23086 z"
     id="path4161"
     inkscape:connector-curvature="0" />
  <path
     style="fill:#87c355;fill-opacity:0.00392157"
     d="M 97.570999,193.4931 C 84.474495,191.685 92.85619,172.65305 86.00295,164.10772 79.911065,147.03923 66.32885,133.51366 61.589093,115.98045 61.032109,104.61629 61.810744,92.561028 69.480363,83.420129 81.634002,65.32839 106.22112,58.592593 126.36732,66.074163 c 17.68517,5.323789 31.53996,22.693278 29.64336,41.607267 0.21401,22.94558 -17.60934,39.68826 -25.83839,59.68027 -4.85125,7.90797 2.44057,25.61022 -10.25443,25.8651 -7.41796,0.63085 -14.92149,0.93797 -22.346861,0.2663 z"
     id="path4163"
     inkscape:connector-curvature="0" />
  <path
     style="fill:#ffeb3b;fill-opacity:0.00392157;fill-rule:nonzero"
     d="M 97.570999,193.52462 C 84.475628,191.65736 92.856143,172.67074 86.00295,164.10772 79.911065,147.03923 66.32885,133.51366 61.589093,115.98045 61.032109,104.61629 61.810744,92.561028 69.480363,83.420129 81.645664,65.310195 106.27312,58.574128 126.42686,66.109808 c 17.67309,5.322978 31.46581,22.684729 29.58097,41.580562 0.21899,22.94272 -17.6138,39.68319 -25.83678,59.67495 -4.8108,8.03443 2.4605,26.32665 -10.87384,25.83011 -7.22003,0.48474 -14.5009,0.92192 -21.726211,0.32919 z"
     id="path4165"
     inkscape:connector-curvature="0" />
  <path
     style="fill:#ffeb3b;fill-opacity:0.00392157;fill-rule:nonzero"
     d="M 97.458094,193.48554 C 84.832352,192.10184 92.669336,174.14852 86.724979,166.04526 80.867447,148.77744 67.906776,135.04129 61.903128,117.88964 60.722845,105.99223 61.497134,93.071577 69.480363,83.420129 81.644881,65.311759 106.2713,58.572732 126.42353,66.111621 c 17.67206,5.324222 31.471,22.680827 29.5843,41.578749 0.21899,22.94272 -17.6138,39.68319 -25.83678,59.67495 -4.80782,8.06002 2.46583,26.39328 -10.94528,25.84252 -7.23068,0.47462 -14.53526,0.91579 -21.767676,0.2777 z"
     id="path4167"
     inkscape:connector-curvature="0" />
  <path
     style="fill:#ffeb3b;fill-opacity:0.00392157;fill-rule:nonzero"
     d="M 97.458094,193.48554 C 84.832352,192.10184 92.669336,174.14852 86.724979,166.04526 80.867447,148.77744 67.906776,135.04129 61.903128,117.88964 60.722845,105.99223 61.497134,93.071577 69.480363,83.420129 81.644881,65.311759 106.2713,58.572732 126.42353,66.111621 c 17.03417,5.213864 30.86837,21.585245 29.57111,39.950509 0.91811,22.58214 -15.84788,39.74376 -24.94183,58.8897 -5.62798,8.1664 0.7653,23.61576 -8.42351,27.91097 -8.33987,0.81786 -16.80628,1.28358 -25.171206,0.62274 z"
     id="path4169"
     inkscape:connector-curvature="0" />
  <path
     style="fill:#ffeb3b;fill-opacity:0.00392157;fill-rule:nonzero"
     d="M 97.458094,193.48554 C 84.832352,192.10184 92.669336,174.14852 86.724979,166.04526 80.867447,148.77744 67.906776,135.04129 61.903128,117.88964 60.722845,105.99223 61.497134,93.071577 69.480363,83.420129 81.694099,65.248442 106.45264,58.540228 126.65837,66.14075 c 17.70314,5.465977 31.37554,23.112227 29.33556,42.03016 -0.0542,22.70684 -17.64972,39.35475 -25.82266,59.19376 -4.80819,8.06011 2.46581,26.39382 -10.9455,25.84317 -7.23068,0.47462 -14.53526,0.91579 -21.767676,0.2777 z"
     id="path4171"
     inkscape:connector-curvature="0" />
  <path
     style="fill:#ffeb3b;fill-opacity:0.00392157;fill-rule:nonzero"
     d="M 97.28366,193.46653 C 84.491846,191.40736 92.808827,172.69043 86.026151,164.18099 79.901549,147.17421 66.607372,133.53503 61.453192,116.22899 61.625616,105.75152 61.02669,94.557108 67.961689,85.810904 77.551718,69.768439 96.807646,60.76017 115.26732,63.488733 c 18.91343,1.99813 37.6725,15.464791 40.39446,35.205876 2.77335,18.332851 -5.76556,35.681531 -15.70303,50.456111 -6.79014,10.007 -12.40375,21.15514 -12.31799,33.55101 2.03093,15.90949 -17.85805,9.65699 -27.52125,10.99189 l -1.560273,-0.095 -1.275577,-0.13208 z"
     id="path4173"
     inkscape:connector-curvature="0" />
  <path
     style="fill:#ffeb3b;fill-opacity:0.00392157;fill-rule:nonzero"
     d="M 97.521672,193.47842 C 84.414166,191.70917 92.838645,172.72264 86.026151,164.18099 79.901549,147.17421 66.607372,133.53503 61.453192,116.22899 61.620218,105.92784 61.046215,94.932652 67.646894,86.246552 78.159543,68.32407 100.69803,59.059579 120.76862,64.549074 c 19.20269,3.475965 36.11772,20.503271 35.31733,40.728406 0.8491,21.44329 -13.69201,38.54197 -23.39779,56.28535 -5.83681,9.27585 -3.34225,21.00382 -7.16403,30.69064 -9.12228,1.77038 -18.74361,1.71993 -28.002458,1.22495 z"
     id="path4175"
     inkscape:connector-curvature="0" />
  <path
     style="fill:#ffeb3b;fill-opacity:0.00392157;fill-rule:nonzero"
     d="m 107.22096,222.3717 c -7.536751,-4.01208 -16.023742,-10.00457 -14.442482,-17.43046 -1.871222,-12.12196 13.882452,-5.90363 21.594982,-7.45797 10.91233,-3.75778 13.18945,4.62092 10.49278,13.12869 -4.13927,4.85863 -10.43602,13.26127 -17.64528,11.75974 z"
     id="path4177"
     inkscape:connector-curvature="0" />
  <path
     style="fill:#ffeb3b;fill-opacity:0.00392157;fill-rule:nonzero"
     d="m 104.58587,224.88037 c -8.595545,-5.938 -18.429159,-13.91004 -16.018224,-25.19281 1.302665,-8.34143 -3.040511,-19.12554 -3.79803,-28.68368 -4.638421,-22.38418 -26.26556,-37.89286 -27.310422,-61.31109 0.169545,-22.390487 16.514892,-43.02262 38.228,-48.351634 18.122166,-4.40384 38.842526,1.083501 52.292776,14.028047 16.105,17.360462 13.79372,44.996157 1.69425,63.918957 -7.84298,13.87271 -19.2382,27.09842 -18.85036,43.97399 -4.95693,10.47626 2.96102,22.3151 -5.10926,31.23598 -5.57204,5.84845 -11.99818,13.80306 -21.12873,10.38224 z m 9.21037,-2.95214 c 9.10339,-4.6268 13.1787,-13.41841 12.54522,-22.20721 -8.21604,-6.09117 -22.23947,-1.79805 -32.542995,-1.93658 -1.84464,4.67384 -1.67769,10.5032 -0.309435,14.55826 5.510691,4.59128 12.12285,13.76336 20.30721,9.58553 z m 8.97095,-28.36518 c 10.6109,-5.35489 2.31024,-23.3441 10.69688,-32.30546 9.25585,-17.09507 23.55731,-33.09169 23.0588,-53.74141 2.23078,-20.646938 -14.42366,-39.228741 -34.08203,-43.193492 -21.81364,-6.889484 -46.800129,4.208507 -57.063524,24.447791 -6.555134,12.511331 -6.566693,28.736151 0.976689,40.842861 9.819015,16.94242 22.910006,33.61631 23.261728,54.12863 -1.538338,16.16215 20.027837,9.26758 30.015247,10.17783 l 1.65465,-0.16554 1.48156,-0.19121 c 0,0 0,0 0,0 z"
     id="path4179"
     inkscape:connector-curvature="0" />
  <path
     style="fill:#000000;fill-opacity:1;fill-rule:nonzero;stroke:#000000;stroke-width:1;stroke-linecap:butt;stroke-linejoin:miter;stroke-miterlimit:4;stroke-dasharray:none;stroke-dashoffset:0;stroke-opacity:0"
     d="m 104.58587,224.88037 c -8.595545,-5.938 -18.429159,-13.91004 -16.018224,-25.19281 1.302665,-8.34143 -3.040511,-19.12554 -3.79803,-28.68368 C 80.155824,149.18143 59.853984,134.01974 57.490743,111.52834 56.841226,89.101889 72.470477,67.594466 94.229824,61.77405 c 17.934386,-5.131388 38.571716,0.152029 52.508206,12.352917 16.99745,16.639577 15.53888,44.751143 3.64699,63.887073 -7.87627,14.39916 -19.95195,27.84042 -19.56116,45.24811 -4.95694,10.47626 2.96102,22.3151 -5.10927,31.23598 -5.57203,5.84845 -11.99819,13.80306 -21.12872,10.38224 z m 9.21037,-2.95214 c 9.10339,-4.6268 13.1787,-13.41841 12.54522,-22.20721 -8.21604,-6.09117 -22.23947,-1.79805 -32.542995,-1.93658 -1.84464,4.67384 -1.67769,10.5032 -0.309435,14.55826 5.510691,4.59128 12.12285,13.76336 20.30721,9.58553 z m 8.92829,-28.35914 c 9.78548,-2.95698 3.11769,-17.66832 7.64959,-25.19078 7.5448,-19.98051 25.80822,-35.84071 26.04068,-58.48592 C 159.15012,91.324158 147.01758,72.790434 129.5582,66.596733 110.80448,58.513365 87.270227,62.17959 73.41029,77.665445 62.142286,88.739972 57.858043,105.93542 62.330439,121.01801 c 8.359419,20.16013 25.724721,36.8621 27.03557,59.66682 -3.558838,16.86922 15.584961,13.80821 26.530361,13.49139 2.28179,-0.12212 4.56514,-0.28151 6.82816,-0.60713 z"
     id="path4181"
     inkscape:connector-curvature="0" />
  <path
     style="fill:#ffff00;fill-opacity:1;fill-rule:nonzero"
     d="M 97.521672,193.47842 C 85.126782,192.49166 92.424786,175.31851 87.15293,167.44033 81.607935,148.93754 66.969613,134.61297 61.453192,116.22899 61.623632,105.93975 61.037645,94.952425 67.636316,86.27788 78.152101,68.313558 100.71127,59.018344 120.81588,64.561264 c 19.44467,3.479461 36.43565,21.098672 35.17284,41.500866 0.9346,22.97807 -16.39784,40.23827 -25.29709,59.86354 -5.46145,7.98926 1.78538,25.1829 -9.56355,27.1143 -7.83586,0.65041 -15.75702,1.07009 -23.606408,0.43845 z"
     id="path4183"
     inkscape:connector-curvature="0" />
</svg>
